<svg viewBox="0 0 32 32" xmlns="http://www.w3.org/2000/svg">
  <path d="M9.608 13.009c.88-3.52 3.08-5.28 6.6-5.28 5.28 0 5.939 3.958 8.578 4.619 1.76.44 3.3-.22 4.62-1.98-.88 3.52-3.08 5.28-6.599 5.28-5.28 0-5.94-3.958-8.579-4.62-1.76-.44-3.3.22-4.62 1.98zm-6.6 7.92c.88-3.52 3.08-5.28 6.6-5.28 5.28 0 5.94 3.958 8.579 4.619 1.76.44 3.3-.22 4.62-1.98-.88 3.521-3.08 5.281-6.6 5.281-5.281 0-5.94-3.958-8.58-4.62-1.76-.44-3.3.22-4.619 1.98z" fill="url(#a)" style="fill:#000;stroke-width:.755453"/>
</svg>
